<svg version="1.1" xmlns="http://www.w3.org/2000/svg" xmlns:xlink="http://www.w3.org/1999/xlink" width="192.66149" height="53.13454" viewBox="0,0,192.66149,53.13454"><g transform="translate(-143.61197,-152.92358)"><g data-paper-data="{&quot;isPaintingLayer&quot;:true}" fill="none" fill-rule="nonzero" stroke-width="8" stroke-linecap="round" stroke-linejoin="miter" stroke-miterlimit="10" stroke-dasharray="" stroke-dashoffset="0" style="mix-blend-mode: normal"><path d="M260.18006,202.05812l9.51422,-41.40181l23.90753,-0.29652" stroke="#0036ff"/><path d="M287.60797,180.7882l-21.5294,-0.03492" stroke="#0036ff"/><path d="M195.51758,158.29377l-8.70169,43.45764" stroke="#e500ff"/><path d="M198.41229,202.01757l5.91715,-26.05114" stroke="#e500ff"/><path d="M202.58911,186.48285c0,0 3.7411,-9.16455 11.50679,-8.80286c9.24692,0.30099 2.76398,24.06285 2.76398,24.06285" stroke="#e500ff"/><path d="M296.01671,201.74308l4.87295,-30.69336" stroke="#0036ff"/><path d="M330.67707,198.31576c0,0 -4.27815,4.54451 -11.06335,3.25257c-7.91919,-1.50785 -9.63375,-7.66918 -9.71704,-12.79078c-0.09488,-5.83479 3.52674,-13.8537 11.86752,-14.35891c6.11867,-0.37062 11.36457,4.89574 10.53766,11.79864c-0.03444,0.28747 -21.02351,0.83745 -21.02351,0.83745" stroke="#0036ff"/><g stroke="#e500ff"><path d="M147.61197,201.61955l13.20144,-44.35654"/><path d="M162.7548,156.92358c0,0 23.55008,1.07255 19.85482,11.46845c-3.69527,10.3959 -26.5103,7.25544 -26.5103,7.25544"/></g><path d="M236.05062,159.41031l-8.70169,42.45764" stroke="#e500ff"/><path d="M248.3514,201.68619l-15.01201,-15.22346l19.77516,-9.70708" stroke="#e500ff"/></g></g></svg>